<svg width="20" height="20" viewBox="0 0 20 20" fill="none" xmlns="http://www.w3.org/2000/svg">
<g clip-path="url(#clip0_18_174)">
<path d="M18.2909 4.46342H3.43521L3.21439 2.00336C3.17827 1.60106 2.84111 1.29281 2.43721 1.29281H0.851831C0.420884 1.29281 0.0715332 1.64216 0.0715332 2.07311C0.0715332 2.50405 0.420884 2.8534 0.851831 2.8534H1.72383C2.20037 8.16248 0.968765 -5.55951 2.62129 12.852C2.68497 13.5726 3.07434 14.3546 3.7451 14.8859C2.53575 16.4303 3.64073 18.7071 5.60793 18.7071C7.24069 18.7071 8.3923 17.0786 7.83238 15.5363H12.1031C11.5438 17.0767 12.693 18.7071 14.3275 18.7071C15.6319 18.7071 16.6932 17.6459 16.6932 16.3414C16.6932 15.037 15.6319 13.9757 14.3275 13.9757H5.61321C5.02048 13.9757 4.50396 13.6181 4.28102 13.0971L16.7512 12.3642C17.0917 12.3442 17.3797 12.1054 17.4624 11.7746L19.0479 5.43296C19.1709 4.94122 18.7986 4.46342 18.2909 4.46342V4.46342ZM5.60793 17.1465C5.16406 17.1465 4.80289 16.7853 4.80289 16.3414C4.80289 15.8975 5.16406 15.5363 5.60793 15.5363C6.05185 15.5363 6.41302 15.8975 6.41302 16.3414C6.41302 16.7853 6.05185 17.1465 5.60793 17.1465ZM14.3275 17.1465C13.8836 17.1465 13.5224 16.7853 13.5224 16.3414C13.5224 15.8975 13.8836 15.5363 14.3275 15.5363C14.7714 15.5363 15.1326 15.8975 15.1326 16.3414C15.1326 16.7853 14.7714 17.1465 14.3275 17.1465ZM16.0874 10.84L4.07097 11.5461L3.57529 6.02398H17.2915L16.0874 10.84Z" fill="#989898"/>
</g>
<defs>
<clipPath id="clip0_18_174">
<rect width="19" height="19" fill="white" transform="translate(0.0715332 0.5)"/>
</clipPath>
</defs>
</svg>
