<svg width="18" height="18" viewBox="0 0 18 18" fill="none" xmlns="http://www.w3.org/2000/svg">
<path d="M16.8629 15.9538L12.0082 11.2226C12.9486 10.0906 13.5148 8.65216 13.5148 7.08552C13.5148 3.45448 10.4832 0.5 6.75738 0.5C3.03156 0.5 0 3.45444 0 7.08548C0 10.7165 3.03159 13.671 6.75741 13.671C8.36495 13.671 9.84092 13.1192 11.0025 12.2028L15.8571 16.9339C15.9958 17.0691 16.1779 17.1371 16.36 17.1371C16.5422 17.1371 16.7242 17.0691 16.8629 16.9339C17.141 16.6629 17.141 16.2248 16.8629 15.9538ZM6.75741 12.2846C3.81544 12.2846 1.42262 9.95262 1.42262 7.08548C1.42262 4.21835 3.81544 1.8864 6.75741 1.8864C9.69938 1.8864 12.0922 4.21835 12.0922 7.08548C12.0922 9.95262 9.69935 12.2846 6.75741 12.2846Z" fill="#989898"/>
</svg>
