<svg width="17" height="17" viewBox="0 0 17 17" fill="none" xmlns="http://www.w3.org/2000/svg">
<path d="M15.4975 16.0036C6.96587 16.0157 0.490882 9.46316 0.50001 1.00617C0.50001 0.453887 0.947725 0.00366211 1.50001 0.00366211H4.13937C4.63494 0.00366211 5.05593 0.367792 5.1287 0.857991C5.30311 2.03286 5.64517 3.17663 6.14448 4.25437L6.24725 4.47617C6.39013 4.78457 6.29328 5.151 6.01668 5.34854C5.1993 5.93225 4.88692 7.10722 5.5237 8.02402C6.32278 9.1745 7.33005 10.1816 8.48027 10.9803C9.39702 11.6169 10.5718 11.3045 11.1555 10.4873C11.3532 10.2106 11.7198 10.1137 12.0284 10.2566L12.2492 10.3589C13.327 10.8582 14.4708 11.2002 15.6458 11.3746C16.136 11.4474 16.5 11.8683 16.5 12.3639V15.0036C16.5 15.5559 16.0512 16.0036 15.4989 16.0036L15.4975 16.0036Z" fill="#FEFEFE"/>
</svg>
