<svg width="30" height="31" viewBox="0 0 30 31" fill="none" xmlns="http://www.w3.org/2000/svg">
<path d="M0 15.5903C0.00174525 23.0148 5.36742 29.3364 12.6551 30.5V19.952H8.84969V15.5903H12.6596V12.27C12.4892 10.6966 13.0233 9.12862 14.117 7.99117C15.2106 6.85372 16.7504 6.26473 18.3189 6.38394C19.4446 6.40223 20.5676 6.50312 21.6787 6.68579V10.397H19.7828C19.1301 10.311 18.4739 10.5279 17.999 10.9866C17.5242 11.4453 17.2821 12.0962 17.3409 12.7559V15.5903H21.4973L20.8328 19.9535H17.3409V30.5C25.2223 29.2467 30.7491 22.0042 29.9172 14.0193C29.0854 6.03436 22.1862 0.1024 14.2177 0.520835C6.24933 0.939269 0.00126667 7.56161 0 15.5903Z" fill="#FEFEFE"/>
</svg>
