<svg width="30" height="31" viewBox="0 0 30 31" fill="none" xmlns="http://www.w3.org/2000/svg">
<path d="M14.9917 30.5C10.8939 30.5 10.4109 30.4784 8.81177 30.4085C7.56475 30.3676 6.33387 30.1144 5.17213 29.66C3.1621 28.8789 1.57269 27.2912 0.791227 25.2838C0.353647 24.1195 0.117631 22.8894 0.0932815 21.646C0 20.0526 0 19.5303 0 15.4701C0 11.3666 0.0216546 10.8876 0.0932815 9.29907C0.118164 8.05742 0.354172 6.82902 0.791227 5.66633C1.57185 3.65624 3.16383 2.06715 5.17712 1.28842C6.34088 0.849638 7.57137 0.613347 8.8151 0.58982C10.4059 0.5 10.9289 0.5 14.9917 0.5C19.1227 0.5 19.5974 0.521623 21.1716 0.58982C22.4185 0.613551 23.6523 0.849816 24.8195 1.28842C26.8323 2.06804 28.4239 3.65681 29.2054 5.66633C29.6504 6.84596 29.8877 8.09357 29.9067 9.35396C30 10.9474 30 11.4681 30 15.5266C30 19.5852 29.9767 20.1174 29.9067 21.6926C29.8819 22.9371 29.6453 24.1684 29.2071 25.3337C28.4236 27.3425 26.8319 28.9308 24.8195 29.7116C23.6539 30.1477 22.4227 30.3833 21.1782 30.4085C19.5875 30.5 19.0661 30.5 14.9917 30.5ZM14.935 3.13307C10.8606 3.13307 10.4375 3.15303 8.84675 3.22455C7.89725 3.23711 6.95693 3.41208 6.06663 3.74185C4.75195 4.24419 3.71165 5.27876 3.20322 6.58949C2.87043 7.48819 2.69518 8.43742 2.68517 9.39554C2.59689 11.0073 2.59689 11.4298 2.59689 15.4701C2.59689 19.4621 2.61188 19.9461 2.68517 21.5479C2.70009 22.4963 2.87523 23.4355 3.20322 24.3257C3.7124 25.6355 4.75252 26.6693 6.06663 27.1717C6.95633 27.5036 7.89703 27.6787 8.84675 27.689C10.4592 27.7821 10.884 27.7821 14.935 27.7821C19.0211 27.7821 19.4442 27.7621 21.0217 27.689C21.9718 27.6774 22.9128 27.5024 23.8034 27.1717C25.1102 26.665 26.1437 25.6335 26.6519 24.329C26.984 23.4296 27.1592 22.4799 27.1699 21.5213H27.1882C27.2599 19.9311 27.2599 19.507 27.2599 15.4434C27.2599 11.3799 27.2415 10.9524 27.1699 9.36394C27.155 8.41658 26.9798 7.47856 26.6519 6.58949C26.1448 5.28305 25.1112 4.24965 23.8034 3.74185C22.913 3.41041 21.9719 3.2354 21.0217 3.22455C19.4109 3.13307 18.9895 3.13307 14.935 3.13307ZM14.9917 23.153C11.8767 23.155 9.06733 21.283 7.87373 18.4099C6.68013 15.5369 7.33743 12.2288 9.53909 10.0284C11.7407 7.828 15.0531 7.16878 17.9313 8.35817C20.8095 9.54756 22.6867 12.3513 22.6874 15.4617C22.6828 19.705 19.2411 23.1448 14.9917 23.153ZM14.9917 10.4684C12.2318 10.4684 9.99445 12.7025 9.99445 15.4584C9.99445 18.2143 12.2318 20.4484 14.9917 20.4484C17.7516 20.4484 19.9889 18.2143 19.9889 15.4584C19.9825 12.7052 17.7489 10.4748 14.9917 10.4684ZM22.9872 9.28244C21.9968 9.27876 21.1964 8.47503 21.1982 7.48604C21.2001 6.49705 22.0035 5.69629 22.9939 5.69629C23.9843 5.69629 24.7877 6.49704 24.7896 7.48603C24.79 7.96318 24.6002 8.42086 24.262 8.75795C23.9238 9.09503 23.4651 9.28376 22.9872 9.28244Z" fill="#FEFEFE"/>
</svg>
