<svg width="15" height="19" viewBox="0 0 15 19" fill="none" xmlns="http://www.w3.org/2000/svg">
<path d="M7.5 18.0037C6.23693 16.9263 5.06619 15.7452 4 14.4727C2.4 12.5617 0.500001 9.71571 0.500001 7.00371C0.498583 4.17126 2.20425 1.6171 4.82107 0.53311C7.43789 -0.550883 10.4501 0.0489528 12.452 2.05271C13.7685 3.36332 14.5059 5.1461 14.5 7.00371C14.5 9.71571 12.6 12.5617 11 14.4727C9.93382 15.7452 8.76307 16.9263 7.5 18.0037ZM7.5 4.00371C6.42821 4.00371 5.43782 4.57551 4.90193 5.50371C4.36603 6.43192 4.36603 7.57551 4.90193 8.50371C5.43782 9.43192 6.42821 10.0037 7.5 10.0037C9.15686 10.0037 10.5 8.66057 10.5 7.00371C10.5 5.34686 9.15686 4.00371 7.5 4.00371Z" fill="#FEFEFE"/>
</svg>
