<svg width="21" height="21" viewBox="0 0 21 21" fill="none" xmlns="http://www.w3.org/2000/svg">
<path d="M14.5 0.00366211C15.6046 0.00366211 16.5 0.899093 16.5 2.00366L2.5 2.00366L2.5 13.1801C1.39543 13.1801 0.5 12.2847 0.5 11.1801V2.00366C0.5 0.899091 1.39543 0.00366211 2.5 0.00366211H14.5Z" fill="#FEFEFE"/>
<path d="M12.5 20.0037L9.83333 17.1801H6.5C5.39543 17.1801 4.5 16.2847 4.5 15.1801V6.00366C4.5 4.89909 5.39543 4.00366 6.5 4.00366H18.5C19.6046 4.00366 20.5 4.89909 20.5 6.00366V15.1801C20.5 16.2847 19.6046 17.1801 18.5 17.1801H15.1667L12.5 20.0037ZM14.3046 15.1801L18.5 15.1801V6.00366L6.5 6.00366V15.1801H10.6954L12.5 17.0909L14.3046 15.1801Z" fill="#FEFEFE"/>
</svg>
