<svg width="30" height="29" viewBox="0 0 30 29" fill="none" xmlns="http://www.w3.org/2000/svg">
<path d="M26.4662 4.91501C27.7518 4.03189 28.7138 2.64132 29.1725 1.00293C27.9644 1.82655 26.6427 2.40673 25.2644 2.71838C23.3535 0.395734 20.3258 -0.169493 17.8732 1.33854C15.4206 2.84656 14.1503 6.05451 14.772 9.16985C9.82351 8.88439 5.21317 6.19857 2.08815 1.78074C0.457271 5.01293 1.29069 9.14477 3.99273 11.2231C3.01565 11.187 2.06023 10.883 1.20614 10.3365C1.20614 10.3662 1.20614 10.3959 1.20614 10.4255C1.2067 13.7924 3.27188 16.6926 6.14399 17.3598C5.23769 17.6431 4.28703 17.6849 3.36457 17.4818C4.17229 20.3611 6.48181 22.3336 9.11416 22.3925C6.93398 24.3586 4.24153 25.4249 1.47003 25.4196C0.97878 25.4204 0.48792 25.388 0 25.3224C2.8144 27.4004 6.09002 28.5034 9.43541 28.4995C14.0897 28.5363 18.5625 26.428 21.8535 22.6463C25.1445 18.8646 26.979 13.725 26.9466 8.37721C26.9466 8.07071 26.9404 7.76585 26.928 7.46264C28.1334 6.46172 29.1736 5.22176 30 3.80104C28.8771 4.37296 27.6859 4.74845 26.4662 4.91501Z" fill="#FEFEFE"/>
</svg>
