<svg width="265" height="41" viewBox="0 0 265 41" fill="none" xmlns="http://www.w3.org/2000/svg">
<path d="M18.5979 5.8541C19.1966 4.01148 21.8034 4.01148 22.4021 5.8541L24.6535 12.7832C24.9213 13.6072 25.6892 14.1652 26.5556 14.1652H33.8413C35.7787 14.1652 36.5843 16.6444 35.0169 17.7832L29.1226 22.0656C28.4217 22.5749 28.1283 23.4776 28.3961 24.3017L30.6475 31.2308C31.2462 33.0734 29.1372 34.6056 27.5698 33.4668L21.6756 29.1844C20.9746 28.6751 20.0254 28.6751 19.3244 29.1844L13.4302 33.4668C11.8628 34.6056 9.75381 33.0734 10.3525 31.2307L12.6039 24.3017C12.8717 23.4776 12.5783 22.5749 11.8774 22.0656L5.98313 17.7832C4.41571 16.6444 5.22126 14.1652 7.15871 14.1652H14.4444C15.3108 14.1652 16.0787 13.6072 16.3465 12.7832L18.5979 5.8541Z" fill="#FDC62E"/>
<path d="M74.5979 5.8541C75.1966 4.01148 77.8034 4.01148 78.4021 5.8541L80.6535 12.7832C80.9213 13.6072 81.6892 14.1652 82.5556 14.1652H89.8413C91.7787 14.1652 92.5843 16.6444 91.0169 17.7832L85.1226 22.0656C84.4217 22.5749 84.1283 23.4776 84.3961 24.3017L86.6475 31.2308C87.2462 33.0734 85.1372 34.6056 83.5698 33.4668L77.6756 29.1844C76.9746 28.6751 76.0254 28.6751 75.3244 29.1844L69.4302 33.4668C67.8628 34.6056 65.7538 33.0734 66.3525 31.2307L68.6039 24.3017C68.8717 23.4776 68.5783 22.5749 67.8774 22.0656L61.9831 17.7832C60.4157 16.6444 61.2213 14.1652 63.1587 14.1652H70.4444C71.3108 14.1652 72.0787 13.6072 72.3465 12.7832L74.5979 5.8541Z" fill="#FDC62E"/>
<path d="M130.598 5.8541C131.197 4.01148 133.803 4.01148 134.402 5.8541L136.654 12.7832C136.921 13.6072 137.689 14.1652 138.556 14.1652H145.841C147.779 14.1652 148.584 16.6444 147.017 17.7832L141.123 22.0656C140.422 22.5749 140.128 23.4776 140.396 24.3017L142.647 31.2308C143.246 33.0734 141.137 34.6056 139.57 33.4668L133.676 29.1844C132.975 28.6751 132.025 28.6751 131.324 29.1844L125.43 33.4668C123.863 34.6056 121.754 33.0734 122.353 31.2307L124.604 24.3017C124.872 23.4776 124.578 22.5749 123.877 22.0656L117.983 17.7832C116.416 16.6444 117.221 14.1652 119.159 14.1652H126.444C127.311 14.1652 128.079 13.6072 128.346 12.7832L130.598 5.8541Z" fill="#FDC62E"/>
<path d="M186.598 5.8541C187.197 4.01148 189.803 4.01148 190.402 5.8541L192.654 12.7832C192.921 13.6072 193.689 14.1652 194.556 14.1652H201.841C203.779 14.1652 204.584 16.6444 203.017 17.7832L197.123 22.0656C196.422 22.5749 196.128 23.4776 196.396 24.3017L198.647 31.2308C199.246 33.0734 197.137 34.6056 195.57 33.4668L189.676 29.1844C188.975 28.6751 188.025 28.6751 187.324 29.1844L181.43 33.4668C179.863 34.6056 177.754 33.0734 178.353 31.2307L180.604 24.3017C180.872 23.4776 180.578 22.5749 179.877 22.0656L173.983 17.7832C172.416 16.6444 173.221 14.1652 175.159 14.1652H182.444C183.311 14.1652 184.079 13.6072 184.346 12.7832L186.598 5.8541Z" fill="#FDC62E"/>
<path d="M242.598 5.8541C243.197 4.01148 245.803 4.01148 246.402 5.8541L248.654 12.7832C248.921 13.6072 249.689 14.1652 250.556 14.1652H257.841C259.779 14.1652 260.584 16.6444 259.017 17.7832L253.123 22.0656C252.422 22.5749 252.128 23.4776 252.396 24.3017L254.647 31.2308C255.246 33.0734 253.137 34.6056 251.57 33.4668L245.676 29.1844C244.975 28.6751 244.025 28.6751 243.324 29.1844L237.43 33.4668C235.863 34.6056 233.754 33.0734 234.353 31.2307L236.604 24.3017C236.872 23.4776 236.578 22.5749 235.877 22.0656L229.983 17.7832C228.416 16.6444 229.221 14.1652 231.159 14.1652H238.444C239.311 14.1652 240.079 13.6072 240.346 12.7832L242.598 5.8541Z" fill="#D9D9D9"/>
</svg>
